# xmcd CD database file
#
# Track frame offsets:
#	150
#	17882
#	52692
#	73010
#	96137
#	119227
#	145630
#	170575
#	193462
#	210922
#
# Disc length: 3041 seconds
#
# Revision: 2
# Processed by: cddbd v1.5.2PL0 Copyright (c) Steve Scherf et al.
# Submitted via: CDex 1.51
#
DISCID=900bdf0a
DTITLE=Peter Green - Blue Guitar
DYEAR=1900
DGENRE=Blues
TTITLE0=Apostle
TTITLE1=A Fool No More
TTITLE2=Loser Two Times
TTITLE3=Slaybo Day
TTITLE4=Cryin' Won't Bring You Back
TTITLE5=Gotta See Her Tonight
TTITLE6=Last Train To San Antone
TTITLE7=Woman Don't
TTITLE8=Whatcha Gonna Do?
TTITLE9=Walkin' The Road
EXTD=
EXTT0=
EXTT1=
EXTT2=
EXTT3=
EXTT4=
EXTT5=
EXTT6=
EXTT7=
EXTT8=
EXTT9=
PLAYORDER=
